<svg width="138" height="40" viewBox="0 0 138 40" fill="none" xmlns="http://www.w3.org/2000/svg">
<path fill-rule="evenodd" clip-rule="evenodd" d="M6.45442 19.4696C7.09629 19.8262 7.58809 20.2278 7.95674 20.6973C8.37664 21.2066 8.58946 21.8232 8.58946 22.5294C8.58946 24.3038 7.19643 25.5438 5.20178 25.5438C4.07936 25.5438 2.99432 25.1911 2.06223 24.5259L2.04994 24.517V22.4325L2.10171 22.4942C2.43558 22.8882 3.45317 24.088 5.20178 24.088C6.05857 24.088 6.97027 23.5923 6.97027 22.6744C6.97027 21.7879 6.02354 21.1224 5.45906 20.8039C3.64978 19.7753 3.10413 19.4644 2.58305 18.8407C2.18537 18.3544 2 17.8287 2 17.1844C2 15.4568 3.415 14.25 5.44075 14.25C6.38043 14.25 7.30624 14.5183 8.11806 15.025L8.13244 15.0336V16.8978L8.08302 16.8529C7.2597 16.1017 6.35323 15.7215 5.38925 15.7215C4.34395 15.7215 3.58547 16.2425 3.58547 16.9605C3.58547 17.8849 4.30865 18.2842 6.45442 19.4696Z" fill="black"/>
<path fill-rule="evenodd" clip-rule="evenodd" d="M20.084 19.1295H13.9699V14.394H12.3267V25.3989H13.9699V20.6326H20.084V25.3989H21.7417V14.394H20.084V19.1295Z" fill="black"/>
<path fill-rule="evenodd" clip-rule="evenodd" d="M26.1689 25.3989H27.8117V14.394H26.1689V25.3989Z" fill="black"/>
<path fill-rule="evenodd" clip-rule="evenodd" d="M40.9957 22.836L33.6056 14.3938H32.2871V25.3989H33.8328V17.022L41.1494 25.389L41.1586 25.3989H42.5584V14.3938H40.9957V22.836Z" fill="black"/>
<path fill-rule="evenodd" clip-rule="evenodd" d="M50.8398 19.4696C48.6925 18.2847 47.9703 17.8854 47.9703 16.9605C47.9703 16.2425 48.7283 15.7215 49.7741 15.7215C50.7386 15.7215 51.6456 16.1022 52.4692 16.8529L52.5184 16.8978V15.0336L52.505 15.025C51.6927 14.5183 50.7658 14.25 49.8241 14.25C47.7983 14.25 46.3833 15.4568 46.3833 17.1844C46.3833 17.8295 46.5697 18.3552 46.9679 18.8407C47.4869 19.4636 48.0333 19.7748 49.8439 20.8045C50.4084 21.1219 51.3567 21.7863 51.3567 22.6744C51.3567 23.5923 50.444 24.088 49.5851 24.088C47.8357 24.088 46.8205 22.8882 46.4861 22.4942L46.4338 22.4325V24.517L46.4466 24.5259C47.3792 25.1911 48.4632 25.5438 49.5851 25.5438C50.5875 25.5438 51.4414 25.2473 52.0556 24.6876C52.6475 24.147 52.9738 23.3807 52.9738 22.5294C52.9738 21.8216 52.7605 21.2053 52.3411 20.6973C51.9714 20.2262 51.4801 19.8236 50.8398 19.4696Z" fill="black"/>
<path fill-rule="evenodd" clip-rule="evenodd" d="M58.3395 20.584H62.8459V19.1295H58.3395V15.8502H63.0075V14.394H56.6973V25.3989H63.1534V23.926H58.3395V20.584Z" fill="black"/>
<path fill-rule="evenodd" clip-rule="evenodd" d="M72.438 21.4015H74.5553V23.6305C73.5508 23.9521 72.985 24.1042 72.1776 24.1042C69.5882 24.1042 67.78 22.3742 67.78 19.8976C67.78 17.2733 69.9414 15.7051 72.031 15.7051C72.7494 15.7051 74.2125 15.8524 75.9285 16.8411L75.9724 16.867V15.1906L75.9544 15.1833C74.743 14.6728 73.6146 14.2498 72.0647 14.2498C68.174 14.2498 66.0742 17.208 66.0742 19.9916C66.0742 21.3597 66.5916 22.7134 67.495 23.7065C68.5892 24.9079 70.1916 25.5441 72.1285 25.5441C73.898 25.5441 75.2225 25.062 76.1792 24.6419L76.1965 24.6348V19.9618H72.438V21.4015Z" fill="black"/>
<path fill-rule="evenodd" clip-rule="evenodd" d="M85.8887 20.7009H82.5525L84.156 16.8408L85.8887 20.7009ZM83.6041 14.3289L78.861 25.3575L78.8438 25.3987H80.5241L81.9143 22.1733H86.5596L88.0232 25.3815L88.0308 25.3987H89.7114L84.7571 14.3289H83.6041Z" fill="black"/>
<path fill-rule="evenodd" clip-rule="evenodd" d="M94.0456 23.926V20.584H98.5541V19.1295H94.0456V15.8502H98.7154V14.394H92.4028V25.3989H98.859V23.926H94.0456Z" fill="black"/>
<path d="M114.221 15.088V21.592H113.045V18.844H111.905V21.556H110.741V15.292H111.905V17.836H113.045V15.1L114.221 15.088ZM109.721 20.92H105.485V15.784H106.649V17.404H108.569V15.784H109.721V20.92ZM108.569 18.376H106.649V19.924H108.569V18.376ZM106.865 22.192H114.221V25.936H112.985V23.176H106.865V22.192ZM126.112 20.632H124.564V25.924H123.328V15.076H124.564V19.612H126.112V20.632ZM122.596 17.332H116.152V16.336H118.768V15.112H120.004V16.336H122.596V17.332ZM120.004 22.876C120.468 22.852 120.928 22.824 121.384 22.792C121.84 22.752 122.284 22.7 122.716 22.636L122.812 23.548C122.236 23.652 121.648 23.736 121.048 23.8C120.456 23.856 119.872 23.9 119.296 23.932C118.72 23.956 118.164 23.972 117.628 23.98C117.092 23.98 116.592 23.98 116.128 23.98L115.96 22.96C116.376 22.96 116.82 22.96 117.292 22.96C117.772 22.952 118.264 22.94 118.768 22.924V21.868C118.168 21.764 117.688 21.544 117.328 21.208C116.968 20.864 116.788 20.428 116.788 19.9C116.788 19.596 116.852 19.32 116.98 19.072C117.108 18.816 117.284 18.6 117.508 18.424C117.74 18.248 118.016 18.112 118.336 18.016C118.656 17.92 119.008 17.872 119.392 17.872C119.776 17.872 120.128 17.92 120.448 18.016C120.768 18.112 121.04 18.248 121.264 18.424C121.496 18.6 121.672 18.816 121.792 19.072C121.92 19.32 121.984 19.596 121.984 19.9C121.984 20.428 121.804 20.864 121.444 21.208C121.084 21.552 120.604 21.772 120.004 21.868V22.876ZM117.952 19.9C117.952 20.236 118.084 20.5 118.348 20.692C118.612 20.876 118.96 20.968 119.392 20.968C119.824 20.968 120.168 20.876 120.424 20.692C120.688 20.5 120.82 20.236 120.82 19.9C120.82 19.564 120.688 19.3 120.424 19.108C120.168 18.916 119.824 18.82 119.392 18.82C118.96 18.82 118.612 18.916 118.348 19.108C118.084 19.3 117.952 19.564 117.952 19.9ZM136.108 15.076V21.388H134.872V18.724H132.952V17.716H134.872V15.076H136.108ZM132.964 21.112C132.364 20.904 131.848 20.6 131.416 20.2C130.992 19.792 130.664 19.324 130.432 18.796C130.192 19.38 129.848 19.896 129.4 20.344C128.952 20.792 128.404 21.128 127.756 21.352L127.12 20.38C127.544 20.236 127.92 20.044 128.248 19.804C128.576 19.556 128.852 19.28 129.076 18.976C129.308 18.664 129.484 18.332 129.604 17.98C129.724 17.62 129.784 17.256 129.784 16.888V16.708H127.492V15.712H133.288V16.708H131.032V16.888C131.032 17.224 131.088 17.556 131.2 17.884C131.312 18.212 131.476 18.52 131.692 18.808C131.908 19.096 132.172 19.356 132.484 19.588C132.804 19.82 133.164 20.008 133.564 20.152L132.964 21.112ZM128.992 21.88H136.108V25.792H128.992V21.88ZM130.204 24.808H134.896V22.864H130.204V24.808Z" fill="#222222"/>
</svg>
