<svg width="132" height="40" viewBox="0 0 132 40" fill="none" xmlns="http://www.w3.org/2000/svg">
<path d="M7.90577 17.0529C6.94826 16.1731 6.02423 15.936 5.26625 15.936C4.16143 15.936 3.48515 16.5025 3.48515 17.1761C3.48515 18.0894 4.14402 18.4658 6.29072 19.6576C6.76747 19.9255 7.31252 20.3044 7.73971 20.8535C8.09058 21.2794 8.35306 21.8592 8.35306 22.6293C8.35306 24.3099 7.08352 25.5527 5.08546 25.5527C3.9793 25.5527 2.92537 25.1898 2.04821 24.5617V22.6145C2.38033 23.0069 3.38605 24.184 5.08546 24.184C5.92513 24.184 6.83577 23.6805 6.83577 22.7699C6.83577 21.8592 5.87692 21.2151 5.34928 20.9151C3.56684 19.892 3.05661 19.596 2.56245 19.0001C2.21427 18.5756 2 18.0734 2 17.3984C2 15.7794 3.28695 14.554 5.31848 14.554C6.23984 14.554 7.13173 14.8205 7.90711 15.3093V17.0529H7.90577Z" fill="black"/>
<path d="M19.6479 25.4124H18.0891V20.7454H12.091V25.4124H10.5496V14.6964H12.091V19.3312H18.0891V14.6964H19.6479V25.4124Z" fill="black"/>
<path d="M23.8058 25.4124H22.2644V14.6964H23.8058V25.4124Z" fill="black"/>
<path d="M36.4008 25.4124H35.0831L27.9171 17.1618V25.4124H26.4695V14.6964H27.7122L34.9398 23.0086V14.6964H36.4008V25.4124Z" fill="black"/>
<path d="M44.3445 17.0529C43.3897 16.173 42.4616 15.936 41.7063 15.936C40.5988 15.936 39.9225 16.5025 39.9225 17.1761C39.9225 18.0894 40.5841 18.4657 42.7294 19.6576C43.2075 19.9254 43.7499 20.3044 44.1798 20.8534C44.528 21.2793 44.7904 21.8592 44.7904 22.6292C44.7904 24.3099 43.5209 25.5526 41.5242 25.5526C40.418 25.5526 39.3641 25.1897 38.4883 24.5616V22.6145C38.819 23.0068 39.8248 24.184 41.5242 24.184C42.3652 24.184 43.2745 23.6804 43.2745 22.7698C43.2745 21.8592 42.317 21.215 41.7867 20.915C40.0069 19.8919 39.4967 19.596 38.9998 19C38.657 18.5742 38.4387 18.0706 38.4387 17.397C38.4387 15.778 39.7257 14.5526 41.7559 14.5526C42.6786 14.5526 43.5691 14.8191 44.3458 15.3079V17.0515L44.3445 17.0529Z" fill="black"/>
<path d="M53.0651 16.0637H48.5266V19.3326H52.9111V20.6999H48.5266V24.0291H53.2084V25.4138H46.9866V14.6964H53.0638V16.0637H53.0651Z" fill="black"/>
<path d="M64.4339 24.6701C63.617 25.033 62.2966 25.5513 60.5061 25.5513C56.36 25.5513 54.6445 22.581 54.6445 20.1464C54.6445 17.318 56.7658 14.5526 60.4445 14.5526C61.9511 14.5526 63.0666 14.9771 64.2143 15.4646V17.0341C62.4546 16.0137 61.011 15.9199 60.411 15.9199C58.2724 15.9199 56.2462 17.5216 56.2462 20.0513C56.2462 22.4243 57.959 24.1987 60.553 24.1987C61.3364 24.1987 61.8748 24.0581 62.8952 23.7273V21.4962H60.8369V20.145H64.4339V24.6674V24.6701Z" fill="black"/>
<path d="M76.3293 25.4122H74.7584L73.3282 22.2518H68.7723L67.4211 25.4122H65.8489L70.453 14.6332H71.5364L76.3279 25.4122H76.3293ZM72.7001 20.8697L70.9712 16.9888L69.3669 20.8697H72.7001Z" fill="black"/>
<path d="M84.2111 16.0637H79.6673V19.3326H84.0517V20.6999H79.6673V24.0291H84.349V25.4138H78.1299V14.6964H84.2111V16.0637Z" fill="black"/>
<path d="M102.132 25.4405H100.593V17.0974L97.2934 21.2435H97.0095L93.679 17.0974V25.4405H92.1389V14.723H93.5839L97.1501 19.1236L100.703 14.723H102.132V25.4405Z" fill="black"/>
<path d="M114.203 25.4416H112.631L111.202 22.2811H106.645L105.294 25.4416H103.723L108.324 14.6612H109.409L114.202 25.4416H114.203ZM110.573 20.9018L108.845 17.0181L107.242 20.9018H110.573Z" fill="black"/>
<path d="M117.531 24.0397H122.355V25.4405H115.975V14.723H117.531V24.0397Z" fill="black"/>
<path d="M125.521 24.0397H130.345V25.4405H123.965V14.723H125.521V24.0397Z" fill="black"/>
</svg>
